<svg width="128" height="128" viewBox="0 0 128 128" fill="none" xmlns="http://www.w3.org/2000/svg">
<g clip-path="url(#clip0_10_53)">
<mask id="mask0_10_53" style="mask-type:alpha" maskUnits="userSpaceOnUse" x="0" y="0" width="128" height="128">
<circle cx="64" cy="64" r="64" fill="#D9D9D9"/>
</mask>
<g mask="url(#mask0_10_53)">
<circle cx="64" cy="64" r="64" fill="#031322"/>
</g>
<mask id="mask1_10_53" style="mask-type:alpha" maskUnits="userSpaceOnUse" x="0" y="0" width="128" height="128">
<rect width="128" height="128" rx="16" fill="#031322"/>
</mask>
<g mask="url(#mask1_10_53)">
<rect width="128" height="128" rx="16" fill="#031322"/>
<rect x="-18" y="-10" width="228" height="189" fill="url(#paint0_radial_10_53)"/>
<line x1="1" y1="93.875" x2="129" y2="93.875" stroke="#399CBB" stroke-width="0.25"/>
<line x1="128" y1="34.125" y2="34.125" stroke="#399CBB" stroke-width="0.25"/>
<line x1="93.875" y1="128" x2="93.875" stroke="#399CBB" stroke-width="0.25"/>
<line x1="34.125" x2="34.125" y2="128" stroke="#399CBB" stroke-width="0.25"/>
</g>
<g clip-path="url(#clip1_10_53)">
<path d="M64 93.0625C80.0508 93.0625 93.0625 80.0508 93.0625 64C93.0625 47.9492 80.0508 34.9375 64 34.9375C47.9492 34.9375 34.9375 47.9492 34.9375 64C34.9375 80.0508 47.9492 93.0625 64 93.0625Z" stroke="#F8FBFB" stroke-width="2"/>
<path d="M64 123.062C96.6193 123.062 123.062 96.6193 123.062 64C123.062 31.3807 96.6193 4.9375 64 4.9375C31.3807 4.9375 4.9375 31.3807 4.9375 64C4.9375 96.6193 31.3807 123.062 64 123.062Z" stroke="#F8FBFB" stroke-width="2"/>
<path d="M114.681 94.3431L63.5312 64.8119" stroke="#F8FBFB" stroke-width="2"/>
<path d="M63.5312 63.1881L114.681 33.6569" stroke="#F8FBFB" stroke-width="2"/>
<mask id="mask2_10_53" style="mask-type:alpha" maskUnits="userSpaceOnUse" x="62" y="62" width="2" height="4">
<path d="M64 62.125H62.125V65.875H64V62.125Z" fill="#D9D9D9"/>
</mask>
<g mask="url(#mask2_10_53)">
<path d="M64 65.875C65.0355 65.875 65.875 65.0355 65.875 64C65.875 62.9645 65.0355 62.125 64 62.125C62.9645 62.125 62.125 62.9645 62.125 64C62.125 65.0355 62.9645 65.875 64 65.875Z" fill="#F8FBFB"/>
</g>
</g>
</g>
<defs>
<radialGradient id="paint0_radial_10_53" cx="0" cy="0" r="1" gradientUnits="userSpaceOnUse" gradientTransform="translate(96 84.5) rotate(90) scale(94.5 114)">
<stop offset="0.354524" stop-color="#399CBB" stop-opacity="0.07"/>
<stop offset="0.7" stop-color="#399CBB" stop-opacity="0.15"/>
<stop offset="0.85" stop-color="#399CBB" stop-opacity="0.25"/>
<stop offset="0.99" stop-color="#399CBB" stop-opacity="0.35"/>
</radialGradient>
<clipPath id="clip0_10_53">
<rect width="128" height="128" fill="white"/>
</clipPath>
<clipPath id="clip1_10_53">
<rect width="120" height="120" fill="white" transform="translate(4 4)"/>
</clipPath>
</defs>
</svg>
